HIERARCHY
ROOT Hips
{
	OFFSET 0.00000 0.00000 0.00000
	CHANNELS 6 Xposition Yposition Zposition Zrotation Yrotation Xrotation 
	JOINT LHipJoint
	{
		OFFSET 0 0 0
		CHANNELS 3 Zrotation Yrotation Xrotation
		JOINT LeftHip
		{
			OFFSET 1.57338 -1.94743 0.52196
			CHANNELS 3 Zrotation Yrotation Xrotation
			JOINT LeftKnee
			{
				OFFSET 2.60333 -7.15259 0.00000
				CHANNELS 3 Zrotation Yrotation Xrotation
				JOINT LeftAnkle
				{
					OFFSET 2.77855 -7.63400 0.00000
					CHANNELS 3 Zrotation Yrotation Xrotation
					JOINT LeftToe
					{
						OFFSET 0.19847 -0.54529 2.28466
						CHANNELS 3 Zrotation Yrotation Xrotation
						End Site
						{
							OFFSET 0.00000 -0.00000 1.17993
						}
					}
				}
			}
		}
	}
	JOINT RHipJoint
	{
		OFFSET 0 0 0
		CHANNELS 3 Zrotation Yrotation Xrotation
		JOINT RightHip
		{
			OFFSET -1.61527 -1.94743 0.52196
			CHANNELS 3 Zrotation Yrotation Xrotation
			JOINT RightKnee
			{
				OFFSET -2.53829 -6.97390 0.00000
				CHANNELS 3 Zrotation Yrotation Xrotation
				JOINT RightAnkle
				{
					OFFSET -2.80762 -7.71387 0.00000
					CHANNELS 3 Zrotation Yrotation Xrotation
					JOINT RightToe
					{
						OFFSET -0.30536 -0.83898 2.28801
						CHANNELS 3 Zrotation Yrotation Xrotation
						End Site
						{
							OFFSET -0.00000 -0.00000 1.21323
						}
					}
				}
			}
		}
	}
	JOINT lowerback
	{
		OFFSET 0 0 0
		CHANNELS 3 Zrotation Yrotation Xrotation
		JOINT Chest
		{
			OFFSET -0.04381 1.99497 -0.19778
			CHANNELS 3 Zrotation Yrotation Xrotation
			JOINT Chest2
			{
				OFFSET -0.01959 2.01295 -0.04372
				CHANNELS 3 Zrotation Yrotation Xrotation
				JOINT lowerneck
				{
					OFFSET 0 0 0
					CHANNELS 3 Zrotation Yrotation Xrotation
					JOINT Neck
					{
						OFFSET -0.05459 1.76913 0.09708
						CHANNELS 3 Zrotation Yrotation Xrotation
						JOINT Head
						{
							OFFSET 0.09461 1.77368 -0.11172
							CHANNELS 3 Zrotation Yrotation Xrotation
							End Site
							{
								OFFSET 0.03812 1.78157 -0.04834
							}
						}
					}
				}
				JOINT LeftCollar
				{
					OFFSET 0 0 0
					CHANNELS 3 Zrotation Yrotation Xrotation
					JOINT LeftShoulder
					{
						OFFSET 3.50922 1.24034 -0.28866
CHANNELS 3 Zrotation Xrotation Yrotation
						JOINT LeftElbow
						{
OFFSET 0 -5.401880 0.000000
CHANNELS 3 Zrotation Xrotation Yrotation
							JOINT LeftWrist
							{
OFFSET 0 -3.685590 0.000000
CHANNELS 3 Zrotation Xrotation Yrotation
								JOINT lhand
								{
									OFFSET 0 0 0
CHANNELS 3 Zrotation Xrotation Yrotation
									JOINT LFingers
									{
OFFSET 0 -0.617530 0.000000
CHANNELS 3 Zrotation Xrotation Yrotation
										End Site
										{
OFFSET 0 -0.497870 0.000000
										}
									}
								}
								JOINT LThumb
								{
OFFSET 0 0.000000 0.000000
CHANNELS 3 Zrotation Xrotation Yrotation
									End Site
									{
OFFSET 0 -0.505470 0.505470
									}
								}
							}
						}
					}
				}
				JOINT RightCollar
				{
					OFFSET 0 0 0
					CHANNELS 3 Zrotation Yrotation Xrotation
					JOINT RightShoulder
					{
						OFFSET -2.95373 1.39649 -0.27346
CHANNELS 3 Zrotation Xrotation Yrotation
						JOINT RightElbow
						{
OFFSET 0 -6.106700 -0.000000
CHANNELS 3 Zrotation Xrotation Yrotation
							JOINT RightWrist
							{
OFFSET 0 -3.630520 0.000000
CHANNELS 3 Zrotation Xrotation Yrotation
								JOINT rhand
								{
									OFFSET 0 0 0
CHANNELS 3 Zrotation Xrotation Yrotation
									JOINT RFingers
									{
OFFSET 0 -0.583850 0.000000
CHANNELS 3 Zrotation Xrotation Yrotation
										End Site
										{
OFFSET 0 -0.470710 0.000000
										}
									}
								}
								JOINT RThumb
								{
OFFSET 0 0.000000 0.000000
CHANNELS 3 Zrotation Xrotation Yrotation
									End Site
									{
OFFSET 0 -0.477900 0.477900
									}
								}
							}
						}
					}
				}
			}
		}
	}
}
MOTION
Frames: 9
Frame Time: 0.008333333333333333
0.052100 18.742300 7.097600 -2.755500 12.645100 -2.157700 0.000000 0.000000 0.000000 -8.894800 -15.703900 -2.522900 1.192100 6.928400 19.503500 0.394300 1.026700 -12.278300 0.425300 -4.185600 -11.599400 0.000000 0.000000 0.000000 20.067500 3.318700 7.846200 -0.967400 -6.262200 17.547200 0.922400 -26.075800 -31.037800 -0.209800 2.948800 -8.136200 -1.633300 4.630100 2.462300 -5.882000 6.051600 -0.485300 -5.371400 3.031800 -1.406000 -8.243200 -3.406100 -14.058700 10.303400 -3.848100 3.335700 4.240700 -1.504800 3.643400 -0.000000 -0.000000 0.000000 16.456200 2.086900 4.806700 8.716100 -14.706800 1.126900 31.181900 25.756500 -24.124900 0.000000 0.000000 0.000000 -7.125000 0.000000 0.000000 2.082500 57.598300 -0.642600 -0.000000 -0.000000 0.000000 -62.997400 -33.141800 -33.449100 -55.243400 -54.903100 -30.415000 -55.046000 -1.123600 -6.792600 0.000000 0.000000 0.000000 7.125000 0.000000 -0.000000 -19.707500 18.563500 -13.211500
0.211538 18.746779 7.215399 -3.099913 15.290751 -3.536610 0.000000 0.000000 0.000000 -8.659398 -12.096709 -3.082117 1.390203 7.459842 21.085041 0.526066 4.761146 -16.271096 0.325130 -3.664727 -10.135300 0.000000 0.000000 0.000000 19.901612 1.612234 9.139794 -1.061727 -6.551024 18.391894 1.018599 -26.186169 -30.555983 -0.333746 3.712639 -10.269683 -2.431795 4.276709 2.612001 -5.702657 5.543112 -0.530754 -4.743647 2.780415 -1.671210 -7.876776 -2.980681 -14.101812 10.558147 -3.471630 4.849073 4.295052 -1.284216 4.074589 0.000000 0.000000 0.000000 16.880586 2.511509 7.256744 8.192982 -13.865094 0.997889 30.343373 25.127150 -22.224419 0.000000 0.000000 0.000000 -7.125000 0.000000 0.000000 1.580187 55.307770 -0.400002 0.000000 0.000000 0.000000 -64.973735 -32.224756 -33.446930 -52.942325 -54.115258 -28.541350 -55.940514 -0.752180 -7.189879 0.000000 0.000000 0.000000 7.125000 0.000000 0.000000 -20.145053 17.685365 -13.966440
0.529172 18.724484 7.365146 -3.334227 18.539097 -4.481149 0.000000 0.000000 0.000000 -9.146066 -10.882781 -3.295305 1.462394 7.642635 21.633955 0.248787 5.163414 -12.739933 0.343869 -3.766465 -10.420759 0.000000 0.000000 0.000000 19.205633 -0.152962 9.834348 -1.230358 -7.034520 19.817705 1.075397 -26.589877 -30.872764 -0.426535 4.191354 -11.615591 -2.495818 3.710894 2.228067 -5.829548 4.791266 -0.871115 -4.802177 2.403902 -1.849092 -8.178349 -3.120031 -13.769846 10.662875 -3.768098 6.558952 4.362735 -1.424243 4.577734 0.000000 0.000000 0.000000 18.254657 1.330577 16.681649 6.340505 -10.828748 0.601853 30.178025 34.099365 -22.755125 0.000000 0.000000 0.000000 -7.125000 0.000000 0.000000 1.280306 55.857875 -0.340998 0.000000 0.000000 0.000000 -68.239418 -31.355337 -33.553698 -50.051474 -53.015805 -26.215421 -55.971369 7.503562 -8.980698 0.000000 0.000000 0.000000 7.125000 0.000000 0.000000 -19.616969 14.783804 -14.873742
0.929721 18.709954 7.476657 -3.063532 21.465385 -5.046412 0.000000 0.000000 0.000000 -11.050943 -11.904090 -3.203921 1.709828 8.233387 23.425408 0.325532 3.853106 -12.896642 0.519303 -4.618484 -12.823526 0.000000 0.000000 0.000000 17.408213 -1.309957 9.215179 -1.728389 -8.275429 23.553982 0.853014 -25.374751 -30.323505 -0.530185 4.664898 -12.955342 -3.081830 3.780891 2.038997 -5.934165 4.844521 -1.444011 -4.604294 2.435691 -2.372116 -8.358363 -3.475045 -11.841751 10.634408 -4.370908 6.867643 4.345101 -1.779309 4.415115 0.000000 0.000000 0.000000 19.239213 -0.901868 24.526918 5.281129 -9.058020 0.418654 30.029793 40.894632 -23.596684 0.000000 0.000000 0.000000 -7.125000 0.000000 0.000000 0.911929 56.750579 -0.262678 0.000000 0.000000 0.000000 -73.890735 -29.848522 -35.825147 -46.511377 -51.487471 -23.415590 -57.591010 13.772864 -11.888612 0.000000 0.000000 0.000000 7.125000 0.000000 0.000000 -19.702752 9.471581 -17.274611
1.287355 18.718291 7.544078 -2.406960 21.895804 -4.566463 0.000000 0.000000 0.000000 -12.847495 -11.604775 -3.184539 1.765318 8.359094 23.810174 0.386173 3.179841 -13.341826 0.534054 -4.682581 -13.005503 0.000000 0.000000 0.000000 14.976335 0.093272 7.622421 -2.269310 -9.405817 27.073289 1.083314 -23.386312 -24.746812 -0.333992 3.713902 -10.273120 -3.260368 4.487245 1.405863 -6.519116 5.764787 -2.336398 -5.150256 2.894805 -2.849481 -7.896673 -3.271293 -10.706140 10.718143 -4.262446 7.061513 4.313392 -1.737986 4.267329 0.000000 0.000000 0.000000 20.259759 -1.817814 17.572361 6.608593 -11.273062 0.653163 28.256299 31.647161 -23.308861 0.000000 0.000000 0.000000 -7.125000 0.000000 0.000000 -0.970623 56.042195 0.262901 0.000000 0.000000 0.000000 -79.869546 -32.297335 -41.888501 -41.636187 -49.009602 -19.665584 -57.963657 10.561192 -12.231723 0.000000 0.000000 0.000000 7.125000 0.000000 0.000000 -19.813542 8.746641 -17.692249
1.460425 18.691989 7.586344 -2.411007 21.981208 -4.807477 0.000000 0.000000 0.000000 -13.458818 -11.633450 -3.154647 1.920906 8.699278 24.859151 0.445509 2.801375 -13.945916 0.517294 -4.609185 -12.797222 0.000000 0.000000 0.000000 14.764080 3.533220 9.905352 -2.052483 -8.974414 25.715442 0.941805 -21.458042 -22.245078 -0.701208 5.351849 -14.915069 -2.735617 4.933007 1.950791 -7.146380 6.317369 -2.607024 -6.195869 3.153306 -3.277088 -7.440948 -3.159870 -9.869261 10.926276 -4.234167 6.924688 4.311659 -1.725456 4.079711 0.000000 0.000000 0.000000 22.342886 -0.952744 2.495666 10.019439 -16.769317 1.481118 29.021104 19.548279 -23.910107 0.000000 0.000000 0.000000 -7.125000 0.000000 0.000000 -0.297424 56.864875 0.086703 0.000000 0.000000 0.000000 -86.076673 -36.720630 -47.167205 -39.110053 -47.533704 -17.779931 -57.075720 13.493792 -10.120546 0.000000 0.000000 0.000000 7.125000 0.000000 0.000000 -19.931035 12.544218 -16.158632
1.525162 18.702895 7.636680 -2.609509 22.242139 -4.388040 0.000000 0.000000 0.000000 -13.538875 -12.607000 -3.352923 1.980892 8.826145 25.253109 0.470320 3.161260 -14.497981 0.402430 -4.072449 -11.280648 0.000000 0.000000 0.000000 15.063217 4.493381 11.527575 -1.773559 -8.377458 23.866594 1.201180 -22.338238 -21.167976 -1.162358 6.843724 -19.253451 -2.357582 5.249575 1.876131 -7.636013 6.754238 -2.671877 -6.936385 3.364410 -3.164136 -7.828601 -3.476254 -9.950661 11.445217 -4.646331 6.811852 4.508481 -1.911021 4.121501 0.000000 0.000000 0.000000 24.389925 -1.998980 -4.195694 12.399433 -20.400643 2.239782 28.646934 14.013221 -23.036368 0.000000 0.000000 0.000000 -7.125000 0.000000 0.000000 -0.468841 55.831060 0.124140 0.000000 0.000000 0.000000 -91.588778 -37.494577 -40.758203 -41.764708 -49.080514 -19.762800 -57.437006 15.007933 -12.022714 0.000000 0.000000 0.000000 7.125000 0.000000 0.000000 -19.575507 9.327165 -17.207973
1.528272 18.768820 7.690812 -4.052054 23.046635 -4.289262 0.000000 0.000000 0.000000 -12.017513 -13.263224 -3.409375 1.860158 8.568476 24.454402 0.435418 3.362669 -14.154256 0.485539 -4.467844 -12.396708 0.000000 0.000000 0.000000 16.728765 3.484978 12.772552 -1.297522 -7.216830 20.359431 1.562149 -24.099925 -21.092366 -1.088170 6.629572 -18.622668 -1.496336 5.439532 1.761448 -7.655750 7.049582 -2.703239 -7.431892 3.497330 -2.995973 -7.743890 -3.584350 -9.947228 11.647121 -4.779040 6.291665 4.546515 -1.971319 3.981615 0.000000 0.000000 0.000000 25.213947 -3.752954 -4.967270 13.545868 -22.081725 2.654980 29.396378 15.921062 -23.691220 0.000000 0.000000 0.000000 -7.125000 0.000000 0.000000 0.180902 56.711051 -0.051888 0.000000 0.000000 0.000000 -97.616599 -34.186886 -25.923259 -47.464021 -51.920051 -24.163120 -60.763562 18.550886 -13.279021 0.000000 0.000000 0.000000 7.125000 0.000000 0.000000 -21.052145 5.549093 -20.378140
1.530574 18.819317 7.709474 -4.598798 23.928121 -3.872973 0.000000 0.000000 0.000000 -11.409373 -14.019162 -3.363826 1.696706 8.203536 23.333896 0.409026 3.323936 -13.762298 0.391905 -4.018917 -11.129987 0.000000 0.000000 0.000000 17.246354 2.850579 12.677761 -1.147589 -6.802201 19.130686 1.791078 -25.013958 -20.642331 -1.189826 6.921241 -19.482537 -1.421313 5.464614 1.794570 -7.880661 7.090852 -2.609692 -7.711395 3.520683 -2.875226 -7.005385 -3.576149 -10.645791 11.296295 -4.808549 6.393139 4.304187 -1.960326 4.104748 0.000000 0.000000 0.000000 26.033552 -3.190466 -7.943291 14.967789 -24.101215 3.212800 29.520219 13.906287 -23.645840 0.000000 0.000000 0.000000 -7.125000 0.000000 0.000000 0.331201 56.689432 -0.095572 0.000000 0.000000 0.000000 -104.073534 -33.448095 -19.376680 -46.359520 -51.416912 -23.296895 -63.133327 19.700946 -16.709270 0.000000 0.000000 0.000000 7.125000 0.000000 0.000000 -21.306438 -1.681971 -23.597264
